<?xml version="1.0" encoding="UTF-8"?>
<svg id="Layer_2" data-name="Layer 2" xmlns="http://www.w3.org/2000/svg" viewBox="0 0 398.51 398.51">
  <defs>
    <style>
      .cls-1 {
        fill: #fff;
      }

      .cls-2 {
        fill: #006eff;
      }
    </style>
  </defs>
  <g id="Layer_1-2" data-name="Layer 1">
    <rect class="cls-2" width="398.51" height="398.51" rx="52.39" ry="52.39"/>
    <path class="cls-1" d="M36.29,307.54c-7.73-8.11-10.93-17.86-11.99-28.92v-8.25c1.11-12.79,5.71-22.84,15.57-31.05,6.84-5.69,14.56-9.51,23.09-12.15,10.74-3.33,21.43-5.63,32.61-7.22,10.07-1.43,19.78-3.04,29.6-5.62,3.34-.88,6.42-1.82,9.37-3.49,7.07-4,8.27-11.23,6.39-18.99-2.3-9.49-8-15.22-17.46-17.85-3.93-1.09-7.98-2.08-12.12-2.07l-10.35.02-7.53.96c-4.09.52-7.68,2.19-11.32,3.96-9.45,4.59-13.24,14.25-13.99,24.63l-36.99-.13c1.05-16.54,6.61-29.88,18.71-40.74,5.83-5.23,12.47-9,19.81-11.84,7.48-2.89,15.06-4.29,23.06-5.12,8.25-.86,16.32-.63,24.62-.24,10.46.49,22.35,3.44,31.54,8.35,8.99,4.81,18.65,13.9,22.72,23.29,3.32,7.65,6.02,15.87,6.05,24.49l.27,84.15c.01,3.65,1.76,6.6,3.85,9.29.9.63,1.57.54,2.32-.27l29.03-31.57-.05-187.19,28.87-.1c2.93-.01,5.69-.68,8.83.06v147.01s25.94-28.17,25.94-28.17l40.3-43.6c1.38-1.5,1.87-1.81,4.03-1.81l42.19.04c-.05,1.17-.98,1.42-1.67,2.17l-47.18,50.94-9.25,10.07-5.16,5.86,74.22,104.24-45.43.09-47.13-67.37-7.74-11.15-20.16,20.16c-.92.92-2.86,1.99-2.9,3.54l-.07,54.76h-37.63s-.12-18.42-.12-18.42l-14.78,14.61c-.94.93-1.65,1.82-3.16,1.82-5.5,2.06-11.09,3.47-16.99,4.01-18.51,1.7-33.09-8.64-34.49-27.52-.02-.65-.57-.98-.8-.4-1.55,3.56-4.02,6.23-6.41,9.01l-2.17,2.11c-4.38,4.26-9.1,7.53-14.53,10.4-10.09,5.33-21.05,7.79-32.41,8.52l-8.96.05c-16.56-1.01-30.36-5.12-42.05-17.39ZM74.06,293.82c4.72,2.07,9.4,2.98,14.41,3.27,2.05.12,4.07.48,6.11-.28,1.62.51,3.12.02,4.68-.15,15.6-1.64,30.93-11.08,38.55-24.91,2.56-4.65,4.33-9.45,4.37-14.84l.19-24.53c-2.08,1.7-4.1,2.73-6.51,3.61-4.68,1.69-9.34,2.96-14.28,3.81l-17.9,3.11c-12.01,2.09-27.79,5.02-36.89,13.03-3.63,3.19-5.81,7.97-6,12.81-1.59,11.04,2.9,20.47,13.31,25.05Z"/>
  </g>
</svg>